<?xml version="1.0" encoding="utf-8"?>
<!-- Generator: Adobe Illustrator 16.0.0, SVG Export Plug-In . SVG Version: 6.00 Build 0)  -->
<!DOCTYPE svg PUBLIC "-//W3C//DTD SVG 1.1//EN" "http://www.w3.org/Graphics/SVG/1.1/DTD/svg11.dtd">
<svg version="1.1" xmlns="http://www.w3.org/2000/svg" xmlns:xlink="http://www.w3.org/1999/xlink" x="0px" y="0px" width="188px"
	 height="80px" viewBox="0 0 188 80" enable-background="new 0 0 188 80" xml:space="preserve">
<g id="Layer_1_xA0_Image_1_" display="none">
	
		<image display="inline" overflow="visible" width="890" height="666" id="Layer_1_xA0_Image" xlink:href="AB6BED9CDB0415C5.png"  transform="matrix(0.5 0 0 0.5 -461.3799 -150.1992)">
	</image>
</g>
<g id="Layer_3">
	<g>
		<polygon fill="#1B374B" points="35.81,20.16 19.51,36.45 35.81,52.76 52.12,36.45 		"/>
		<polygon fill="#1B374B" points="69.34,20.16 53.04,36.45 69.34,52.76 85.65,36.45 		"/>
		<polygon fill="#1B374B" points="52.58,37.05 36.27,53.36 52.58,69.65 68.88,53.36 		"/>
		<rect x="32.71" y="27.83" fill="#FFFFFF" width="2.65" height="2.67"/>
		<rect x="29.78" y="30.76" fill="#FFFFFF" width="2.66" height="2.65"/>
		<rect x="63.59" y="30.76" fill="#FFFFFF" width="2.65" height="2.65"/>
		<rect x="66.51" y="27.83" fill="#FFFFFF" width="2.65" height="2.67"/>
		<rect x="66.51" y="33.69" fill="#FFFFFF" width="2.65" height="2.66"/>
		<rect x="69.43" y="27.83" fill="#FFFFFF" width="2.66" height="2.67"/>
		<rect x="69.43" y="36.61" fill="#FFFFFF" width="2.66" height="2.67"/>
		<rect x="69.43" y="42.48" fill="#FFFFFF" width="2.66" height="2.65"/>
		<rect x="66.51" y="42.48" fill="#FFFFFF" width="2.65" height="2.65"/>
		<rect x="72.37" y="30.76" fill="#FFFFFF" width="2.65" height="2.65"/>
		<rect x="72.37" y="39.54" fill="#FFFFFF" width="2.65" height="2.65"/>
		<rect x="63.59" y="39.67" fill="#FFFFFF" width="2.65" height="2.67"/>
		<rect x="46.81" y="47.67" fill="#FFFFFF" width="2.67" height="2.65"/>
		<rect x="49.74" y="44.74" fill="#FFFFFF" width="2.66" height="2.66"/>
		<rect x="49.74" y="50.59" fill="#FFFFFF" width="2.66" height="2.66"/>
		<rect x="52.67" y="44.74" fill="#FFFFFF" width="2.66" height="2.66"/>
		<rect x="52.67" y="53.51" fill="#FFFFFF" width="2.66" height="2.68"/>
		<rect x="52.67" y="59.37" fill="#FFFFFF" width="2.66" height="2.65"/>
		<rect x="49.74" y="59.37" fill="#FFFFFF" width="2.66" height="2.65"/>
		<rect x="55.59" y="47.67" fill="#FFFFFF" width="2.67" height="2.65"/>
		<rect x="55.59" y="56.46" fill="#FFFFFF" width="2.67" height="2.65"/>
		<rect x="46.81" y="56.58" fill="#FFFFFF" width="2.67" height="2.66"/>
		<rect x="38.56" y="30.76" fill="#FFFFFF" width="2.65" height="2.65"/>
		<rect x="29.78" y="33.69" fill="#FFFFFF" width="2.66" height="2.66"/>
		<rect x="29.78" y="36.61" fill="#FFFFFF" width="2.66" height="2.67"/>
		<rect x="29.78" y="39.54" fill="#FFFFFF" width="2.66" height="2.65"/>
		<rect x="32.71" y="42.48" fill="#FFFFFF" width="2.65" height="2.65"/>
		<rect x="35.63" y="42.48" fill="#FFFFFF" width="2.66" height="2.65"/>
		<rect x="38.56" y="39.54" fill="#FFFFFF" width="2.65" height="2.65"/>
		<rect x="35.63" y="27.83" fill="#FFFFFF" width="2.66" height="2.67"/>
	</g>
</g>
<g id="CSSconf_x03_nordic">
	<text transform="matrix(1 0 0 1 87.7388 44.2939)"><tspan x="0" y="0" fill="#1B374B" font-family="'Monaco'" font-size="27.6386" letter-spacing="-2">CSSconf </tspan><tspan x="0" y="24.07" fill="#1B374B" font-family="'Monaco'" font-size="27.6386" letter-spacing="-2">nordic</tspan></text>
</g>
</svg>
